<svg width="95" height="13" viewBox="0 0 95 13" fill="none" xmlns="http://www.w3.org/2000/svg">
<path d="M7.82419 4.032C7.82419 4.992 7.50952 5.76533 6.88019 6.352C6.25086 6.93867 5.30686 7.232 4.04819 7.232H1.79219V12H0.672189V0.815999H4.04819C5.29619 0.815999 6.23486 1.10933 6.86419 1.696C7.50419 2.28267 7.82419 3.06133 7.82419 4.032ZM4.04819 6.272C5.79752 6.272 6.67219 5.52533 6.67219 4.032C6.67219 3.28533 6.46419 2.72 6.04819 2.336C5.63219 1.952 4.96552 1.76 4.04819 1.76H1.79219V6.272H4.04819ZM13.2234 11.088H17.2394V12H12.1034V0.815999H13.2234V11.088ZM22.3098 0.815999V7.856C22.3098 8.96533 22.5711 9.78667 23.0938 10.32C23.6271 10.8533 24.3525 11.12 25.2698 11.12C26.1871 11.12 26.9018 10.8587 27.4138 10.336C27.9365 9.80267 28.1978 8.976 28.1978 7.856V0.815999H29.3178V7.84C29.3178 9.25867 28.9391 10.3253 28.1818 11.04C27.4351 11.7547 26.4591 12.112 25.2538 12.112C24.0485 12.112 23.0671 11.7547 22.3098 11.04C21.5631 10.3253 21.1898 9.25867 21.1898 7.84V0.815999H22.3098ZM40.7599 0.815999V1.744H37.6559V12H36.5359V1.744H33.4159V0.815999H40.7599ZM49.9524 12.112C48.9178 12.112 47.9791 11.872 47.1364 11.392C46.2938 10.9013 45.6271 10.224 45.1364 9.36C44.6564 8.48533 44.4164 7.49867 44.4164 6.4C44.4164 5.30133 44.6564 4.32 45.1364 3.456C45.6271 2.58133 46.2938 1.904 47.1364 1.424C47.9791 0.933333 48.9178 0.688 49.9524 0.688C50.9978 0.688 51.9418 0.933333 52.7844 1.424C53.6271 1.904 54.2884 2.58133 54.7684 3.456C55.2484 4.32 55.4884 5.30133 55.4884 6.4C55.4884 7.49867 55.2484 8.48533 54.7684 9.36C54.2884 10.224 53.6271 10.9013 52.7844 11.392C51.9418 11.872 50.9978 12.112 49.9524 12.112ZM49.9524 11.136C50.7844 11.136 51.5311 10.944 52.1924 10.56C52.8538 10.176 53.3764 9.62667 53.7604 8.912C54.1444 8.18667 54.3364 7.34933 54.3364 6.4C54.3364 5.45067 54.1444 4.61867 53.7604 3.904C53.3764 3.18933 52.8538 2.64 52.1924 2.256C51.5311 1.872 50.7844 1.68 49.9524 1.68C49.1204 1.68 48.3738 1.872 47.7124 2.256C47.0511 2.64 46.5284 3.18933 46.1444 3.904C45.7604 4.61867 45.5684 5.45067 45.5684 6.4C45.5684 7.34933 45.7604 8.18667 46.1444 8.912C46.5284 9.62667 47.0511 10.176 47.7124 10.56C48.3738 10.944 49.1204 11.136 49.9524 11.136ZM72.6964 12L67.8484 6.832V12H66.7284V0.815999H67.8484V6.048L72.6964 0.815999H74.1204L68.8884 6.4L74.1684 12H72.6964ZM83.2462 12.112C82.2115 12.112 81.2729 11.872 80.4302 11.392C79.5875 10.9013 78.9209 10.224 78.4302 9.36C77.9502 8.48533 77.7102 7.49867 77.7102 6.4C77.7102 5.30133 77.9502 4.32 78.4302 3.456C78.9209 2.58133 79.5875 1.904 80.4302 1.424C81.2729 0.933333 82.2115 0.688 83.2462 0.688C84.2915 0.688 85.2355 0.933333 86.0782 1.424C86.9209 1.904 87.5822 2.58133 88.0622 3.456C88.5422 4.32 88.7822 5.30133 88.7822 6.4C88.7822 7.49867 88.5422 8.48533 88.0622 9.36C87.5822 10.224 86.9209 10.9013 86.0782 11.392C85.2355 11.872 84.2915 12.112 83.2462 12.112ZM83.2462 11.136C84.0782 11.136 84.8249 10.944 85.4862 10.56C86.1475 10.176 86.6702 9.62667 87.0542 8.912C87.4382 8.18667 87.6302 7.34933 87.6302 6.4C87.6302 5.45067 87.4382 4.61867 87.0542 3.904C86.6702 3.18933 86.1475 2.64 85.4862 2.256C84.8249 1.872 84.0782 1.68 83.2462 1.68C82.4142 1.68 81.6675 1.872 81.0062 2.256C80.3449 2.64 79.8222 3.18933 79.4382 3.904C79.0542 4.61867 78.8622 5.45067 78.8622 6.4C78.8622 7.34933 79.0542 8.18667 79.4382 8.912C79.8222 9.62667 80.3449 10.176 81.0062 10.56C81.6675 10.944 82.4142 11.136 83.2462 11.136ZM94.3516 0.815999V12H93.2316V0.815999H94.3516Z" fill="#211F20"/>
</svg>
